<?xml version="1.0" encoding="UTF-8"?>
<svg id="Layer_1" xmlns="http://www.w3.org/2000/svg" version="1.1" viewBox="0 0 141.7 141.7">
  <!-- Generator: Adobe Illustrator 29.5.0, SVG Export Plug-In . SVG Version: 2.1.0 Build 137)  -->
  <defs>
    <style>
      .st0 {
        fill: #b78fc2;
      }

      .st1 {
        fill: #6b528f;
      }
    </style>
  </defs>
  <path class="st1" d="M94.4,74.5v13.8c0,4.2,5.3,6.1,7.9,2.8l15.7-19.4c.8-1,2.1-1.7,3.5-1.7h15.8c2.5,0,4.5-2,4.5-4.5V4.6c0-2.5-2-4.5-4.5-4.5h-60.9c-2.5,0-4.5,2-4.5,4.5v61c0,2.5,2,4.5,4.5,4.5h13.6c2.5,0,4.5,2,4.5,4.5Z"/>
  <path class="st0" d="M141.7,121.8v-33.1c0-4.2-5.2-6-7.9-2.9l-10,11.8c-1.1,1.3-1.4,3.2-.6,4.8l10,21.3c2,4.3,8.5,2.9,8.5-1.9Z"/>
  <path class="st1" d="M48.7,65.5v-14.7c0-4.2-5.3-6.1-7.9-2.8l-16.4,20.3c-.8,1-2.1,1.7-3.5,1.7H4.5C2,69.9,0,71.9,0,74.4v63c0,2.5,2,4.5,4.5,4.5h63c2.5,0,4.5-2,4.5-4.5v-63c0-2.5-2-4.5-4.5-4.5h-14.2c-2.5,0-4.5-2-4.5-4.5Z"/>
  <path class="st0" d="M4.5.1h38c3.8,0,5.9,4.4,3.4,7.3L7.9,52.4c-2.7,3.2-7.9,1.3-7.9-2.9V4.6C0,2.1,2,.1,4.5.1Z"/>
</svg>