<?xml version="1.0" encoding="UTF-8"?>
<svg id="Layer_1" xmlns="http://www.w3.org/2000/svg" version="1.1" viewBox="0 0 269.7 73">
  <!-- Generator: Adobe Illustrator 29.5.0, SVG Export Plug-In . SVG Version: 2.1.0 Build 137)  -->
  <defs>
    <style>
      .st0 {
        fill: #fff;
      }
    </style>
  </defs>
  <g>
    <path class="st0" d="M49,39.6v6.8c0,2.1,2.6,3,3.9,1.4l7.8-9.6c.4-.5,1.1-.8,1.7-.8h7.8c1.2,0,2.2-1,2.2-2.2V5c0-1.2-1-2.2-2.2-2.2h-30.2c-1.2,0-2.2,1-2.2,2.2v30.2c0,1.2,1,2.2,2.2,2.2h6.7c1.2,0,2.2,1,2.2,2.2Z"/>
    <path class="st0" d="M72.5,63.1v-16.4c0-2.1-2.6-3-3.9-1.4l-4.9,5.8c-.6.7-.7,1.6-.3,2.4l4.9,10.6c1,2.1,4.2,1.4,4.2-.9Z"/>
    <path class="st0" d="M26.4,35.2v-7.3c0-2.1-2.6-3-3.9-1.4l-8.1,10.1c-.4.5-1.1.8-1.7.8H4.5c-1.2,0-2.2,1-2.2,2.2v31.2c0,1.2,1,2.2,2.2,2.2h31.2c1.2,0,2.2-1,2.2-2.2v-31.2c0-1.2-1-2.2-2.2-2.2h-7.1c-1.2,0-2.2-1-2.2-2.2Z"/>
    <path class="st0" d="M4.5,2.8h18.8c1.9,0,2.9,2.2,1.7,3.6L6.2,28.7c-1.3,1.6-3.9.6-3.9-1.4V5c0-1.2,1-2.2,2.2-2.2Z"/>
  </g>
  <g>
    <path class="st0" d="M94.1,28.5l5.9-2.3c.9,2.8,3.2,4,6.2,4s5.1-1.6,5.1-3.6-.8-2.6-3.3-3.1l-5.6-1.2c-3.4-.7-7.5-2.6-7.5-8.2s4.2-8.7,10.9-8.7,8.8,2.3,10.6,6l-5.5,1.8c-.9-1.8-2.9-2.9-5.1-2.9s-4.6,1.6-4.6,3.5.6,2.4,2.9,2.9l5.7,1.2c4.6,1,7.5,3.7,7.5,8.2s-4.6,9-11.3,9-10.1-2.2-11.5-6.7Z"/>
    <path class="st0" d="M150.9,20.4c0,8.3-6.6,14.9-15,14.9s-15-6.6-15-14.9,6.6-14.9,15-14.9,15,6.6,15,14.9ZM145,20.4c0-5.5-4-9.5-9.2-9.5s-9.2,4-9.2,9.5,4,9.4,9.2,9.4,9.2-4,9.2-9.4Z"/>
    <path class="st0" d="M182.2,27.8c-2.4,4.9-7.2,7.5-12.7,7.5-8.4,0-15-6.5-15-14.9s6.6-14.9,15-14.9,9.6,2.3,12.1,6.3l-5.2,2.7c-1.6-2.4-4.2-3.5-7-3.5-5.1,0-9.2,4-9.2,9.5s4,9.5,9.2,9.5,5.9-1.3,7.4-4.3l5.3,2.3Z"/>
    <path class="st0" d="M193,34.6h-5.8V6.1h5.8v28.5Z"/>
    <path class="st0" d="M225,34.6h-6.3l-2.3-6.1h-11.7l-2.3,6.1h-6.3l11.6-28.5h5.6l11.6,28.5ZM214.5,23.3l-3.8-10.2-3.9,10.2h7.7Z"/>
    <path class="st0" d="M248.8,29.4v5.2h-20.5V6.1h5.8v23.3h14.7Z"/>
  </g>
  <path class="st0" d="M120.7,63.8c-2.4,4.9-7.2,7.5-12.8,7.5-8.4,0-15.1-6.6-15.1-15s6.6-15,15.1-15,9.6,2.3,12.2,6.3l-5.2,2.7c-1.6-2.4-4.2-3.6-7-3.6-5.1,0-9.2,4.1-9.2,9.5s4.1,9.6,9.2,9.6,5.9-1.3,7.5-4.4l5.4,2.3Z"/>
  <path class="st0" d="M151.7,70.7h-6.3l-2.3-6.1h-11.8l-2.3,6.1h-6.3l11.7-28.7h5.6l11.7,28.7ZM141.1,59.3l-3.9-10.2-3.9,10.2h7.8Z"/>
  <path class="st0" d="M181.6,42v28.7h-4.9l-15.9-18.4v18.4h-5.8v-28.7h4.9l15.9,18.9v-18.9h5.8Z"/>
  <path class="st0" d="M215.6,42l-12.4,28.7h-5.6l-12.4-28.7h6.4l8.7,20.9,8.8-20.9h6.4Z"/>
  <path class="st0" d="M241.8,70.7h-6.3l-2.3-6.1h-11.8l-2.3,6.1h-6.3l11.7-28.7h5.6l11.7,28.7ZM231.2,59.3l-3.9-10.2-3.9,10.2h7.8Z"/>
  <path class="st0" d="M243.9,64.5l5.9-2.4c.9,2.8,3.2,4,6.3,4s5.1-1.6,5.1-3.6-.8-2.6-3.3-3.1l-5.7-1.2c-3.4-.7-7.5-2.6-7.5-8.2s4.2-8.7,10.9-8.7,8.9,2.3,10.6,6.1l-5.6,1.8c-.9-1.8-2.9-2.9-5.2-2.9s-4.7,1.6-4.7,3.6.6,2.4,2.9,2.9l5.7,1.2c4.7,1,7.5,3.8,7.5,8.2s-4.6,9-11.4,9-10.1-2.2-11.6-6.8Z"/>
</svg>