<?xml version="1.0" encoding="UTF-8"?>
<svg id="Layer_1" xmlns="http://www.w3.org/2000/svg" version="1.1" viewBox="0 0 212.5 212.3">
  <!-- Generator: Adobe Illustrator 29.6.1, SVG Export Plug-In . SVG Version: 2.1.1 Build 9)  -->
  <defs>
    <style>
      .st0 {
        fill: #fcd1be;
      }

      .st0, .st1, .st2, .st3 {
        fill-rule: evenodd;
      }

      .st1 {
        fill: #404040;
      }

      .st2 {
        fill: #bea0c4;
      }

      .st3 {
        fill: #fce5d9;
      }
    </style>
  </defs>
  <path class="st2" d="M106.2.3c58.7,0,106.2,47.6,106.2,106.2s-47.6,106.2-106.2,106.2S0,165.2,0,106.5,47.6.3,106.2.3h0Z"/>
  <path class="st1" d="M80.1,209.6c-23.3-21.2-20.3-88.8-17.9-118.8,2.7-35.1,17.8-69.1,39.5-65.7,32.1-9.9,50.2,26.4,52.5,64.3,2,31.4,10.1,101.3-26.2,121.1-7,1.5-14.3,2.2-21.8,2.2s-17.8-1.1-26.1-3.2h0Z"/>
  <path class="st3" d="M88.4,98.6s4,27.8-.7,35.6c-7.7,9.7-20.4,12.5-38.5,21.3,13,30.2,27.3,48.2,41.6,56.1,5,.7,10.1,1.1,15.4,1.1,8,0,15.8-.9,23.2-2.6,14.7-9.3,28.1-28.1,38.3-53.6-28.1-15.9-29.5-14.9-36.6-22.4-3.9-4.1-5.3-14.7-5.9-37.2l-36.9,1.6h0Z"/>
  <path class="st0" d="M88.9,102.3l36.8,5.2c.8,15.5,2.3,23.4,5.5,26.8l.3.3c-25.4,8-37.8-8.9-41.7-22.8-.2-3.7-.6-7.1-.9-9.4h0Z"/>
  <path class="st3" d="M77.3,71.7c-2.8,0-4.4,6.3-2.9,12.3,1.6,6,2.4,11.5,5.2,11.5s1.6-3.9,1.6-11-1.1-12.8-3.9-12.8h0Z"/>
  <path class="st0" d="M78.1,73.9c-1.2,0-2.1,3.1-2.4,4.8-.3,1.7-.3,6.2.7,8.5.8,1.9,1.9,6.8,2.5.9,0-1.5-.6-1.8-1-3.7-.3-1.9.6-3.1,1.1-3.6,1.8-2,.2-6.7-.9-6.8h0Z"/>
  <path class="st3" d="M140.1,71.8c2.8,0,4.4,6.3,2.8,12.3-1.6,6-2.5,11.5-5.3,11.5s-1.5-3.9-1.5-11,1.2-12.8,4-12.8h0Z"/>
  <path class="st0" d="M139.2,74c1.2,0,2,3.2,2.3,4.8.3,1.7.2,6.2-.7,8.5-.8,1.9-2,6.8-2.5.9-.1-1.5.7-1.8,1-3.7.3-1.9-.6-3.1-1.1-3.6-1.8-2-.2-6.7,1-6.8h0Z"/>
  <path class="st3" d="M108.5,35.1c31.7,0,29,18.9,28.9,44.7,0,25.8-17.7,43-29.4,41.9-10.6-.4-28.3-15.4-28.2-41.2,0-19.7-2.2-35.8,11.5-42.3,4.2-2,9.8-3.1,17.3-3.1h0Z"/>
  <path class="st1" d="M186.9,175.6l-.5-2.8c-1.4-7.4-9.7-15.3-17.5-18.4-10.3-5-17.7-6.7-27.1-12.2-11.4,47.1-62.7,33.2-64.8.2-13.5,5-15.5,6.5-29.5,11.9,0,0-15,4.9-18.8,19.9l-.9,3.9c19.4,21.3,47.4,34.7,78.5,34.7s61.2-14.4,80.7-37.2h0Z"/>
  <path class="st1" d="M108.6,47.4s11.3-6.2,18.3,1.4,9.6,11,10.5,25.1l2.2-7.3s-1.4-16.9-3.8-21.9c-7.4-15.6-27.2,2.7-27.2,2.7Z"/>
  <path class="st1" d="M108.6,47.4s-11.2-6.2-18.2,1.4-9.6,11-10.5,25.1l-2.2-7.3s1.4-16.9,3.8-21.9c7.4-15.6,27.1,2.7,27.1,2.7Z"/>
  <polygon class="st1" points="89.7 34.1 114.8 30.5 132.8 38.4 119.2 42.9 108.6 47.4 95.4 41.6 85.6 39.8 89.7 34.1"/>
</svg>