<?xml version="1.0" encoding="UTF-8"?>
<svg id="Layer_1" xmlns="http://www.w3.org/2000/svg" version="1.1" viewBox="0 0 212.5 212.3">
  <!-- Generator: Adobe Illustrator 29.5.0, SVG Export Plug-In . SVG Version: 2.1.0 Build 137)  -->
  <defs>
    <style>
      .st0 {
        fill: #bea0c4;
      }

      .st0, .st1, .st2, .st3, .st4, .st5, .st6, .st7, .st8 {
        fill-rule: evenodd;
      }

      .st1 {
        fill: #fff;
      }

      .st9, .st5 {
        fill: #f5f0e4;
      }

      .st2 {
        fill: #fce5d9;
      }

      .st3 {
        fill: #404040;
      }

      .st4 {
        fill: #7f8080;
      }

      .st6 {
        fill: #fcd1be;
      }

      .st7 {
        fill: #333533;
      }

      .st8 {
        fill: #807f7f;
      }
    </style>
  </defs>
  <path class="st0" d="M106.2,0c58.7,0,106.2,47.6,106.2,106.2s-47.6,106.2-106.2,106.2S0,164.9,0,106.2,47.6,0,106.2,0h0Z"/>
  <path class="st5" d="M131,123.9h-1.4c0,1.4,0,2.7,0,4.1.5-1.3.9-2.7,1.3-4.1h0Z"/>
  <rect class="st9" x="131" y="123.9"/>
  <path class="st5" d="M81.5,125.2h-.7c.3.5.5,1,.8,1.5,0-.5,0-1,0-1.5h0Z"/>
  <path class="st3" d="M196.7,162c-13.4-5.8-27.1-6.5-36.8-9.4,0,0,.2,0,.3,0l-.3,15.4v1s-1,.2-1,.2l-8.6,1.5,7.5,8.9.4.4v.6c-1.1,7.1-2.9,14.2-5.4,21.1,18.1-8.8,33.4-22.7,43.9-39.8h0Z"/>
  <path class="st3" d="M155.5,180.9l-8.6-10.2-1.4-1.7,2.2-.4,9.8-1.7.3-14.8s0,0,.1,0c-7.8-4.9-18.3-15.6-21.2-19.2-1.2,28.3-6.1,55.2-12,77.9,8.7-1.5,17.1-4.1,24.9-7.6,2.7-7.3,4.8-14.8,5.9-22.4h0ZM86.6,210.7c-7.2-1.3-14.1-3.4-20.7-6.1-4.5-10.4-8.2-19.7-9.9-26.4l8.5-10.1,1.4-1.7-2.2-.4-9.8-1.7-.3-15.1c0,0-.1,0-.2,0,.1,0,.3-.1.4-.2,9.5-3.7,15.5-7.3,21.5-15.6,0,0,0,.1-.1.2,1,10.4,4.2,44.3,11.2,77h0Z"/>
  <path class="st3" d="M53.4,178.1l-.2-.6.4-.5,7.5-8.9-8.6-1.5-1-.2v-1s-.3-15.3-.3-15.3c0,0,.2,0,.2,0-9.2,3-24.5,5.7-34,9.8,1.9,3.5,3.8,7.8,5.7,12.7,10.4,13.1,23.9,23.6,39.3,30.6-4.2-9.8-7.6-18.7-9.1-25h0Z"/>
  <path class="st7" d="M16.4,160.3c.3-.1.5-.2.8-.4-.3.1-.5.2-.8.4h0Z"/>
  <path class="st7" d="M158.6,152.3c.1,0,.2,0,.3,0-.1,0-.2,0-.3,0h0Z"/>
  <path class="st7" d="M15.3,160.8c.3-.1.6-.3.9-.4-.3.1-.6.3-.9.4h0Z"/>
  <path class="st7" d="M52.3,149.7c.1,0,.2,0,.4-.1-.1,0-.2,0-.4.1h0Z"/>
  <path class="st3" d="M16.3,162.8c-.3-.7-.7-1.3-1-1.9h-.1c.4.7.8,1.3,1.1,1.9h0Z"/>
  <path class="st2" d="M100.9,151.8c3.6,0,7.2.1,10.8.2,7-5.3,14.3-13.7,18-24,0-1.3,0-2.7,0-4.1,0-4.1,0-8.2.5-12.6-5.4,10.1-14.4,16.6-27.5,16.3-9.1-.2-17.2-7.8-22.4-17.9.7,5.3,1.1,10.4,1.2,15.4,0,.5,0,1,0,1.5,5.8,10.9,11.3,18.1,19.4,25.1h0Z"/>
  <path class="st1" d="M90.9,211.4c4.1-16.2,11.8-43.2,11.8-43.2l-5.7-9.3,4.3-6,9.7.2,4.9,5.7-5.6,9.6c2.4,12.8,6.7,29,9.9,43.2,1.5-.2,3-.4,4.5-.7,5.9-22.8,10.8-49.7,12-77.9,0,0,0,0,0,0-3.5-4.6-1.5-1.5-5.6-9h0s0,0,0,0c0,0,0,0,0,0-.4,1.4-.8,2.8-1.3,4.1-3.7,10.3-11,18.7-18,24-3.6,0-7.2-.1-10.8-.2-8.1-7-13.6-14.2-19.4-25.1-.3-.5-.5-1-.8-1.5-1,1.4-4.2,6.6-5.2,8.2,0,0,0,.1-.1.2,1,10.4,4.2,44.3,11.2,77,1.4.3,2.9.5,4.3.7h0Z"/>
  <path class="st3" d="M115.9,158.7l-4.9-5.7-9.7-.2-4.3,6,5.7,9.3s-7.8,27-11.8,43.2c5,.7,10.1,1.1,15.3,1.1s9.4-.3,14-.9c-3.2-14.2-7.5-30.4-9.9-43.2l5.6-9.6h0Z"/>
  <path class="st4" d="M56,178.1l8.5-10.1,1.4-1.7-2.2-.4-9.8-1.7-.3-15.1c0,0-.1,0-.2,0-.3.1-.6.2-.9.3-.1,0-.2,0-.4.1-.3,0-.5.2-.8.3,0,0-.2,0-.2,0l.3,15.3v1s1,.2,1,.2l8.6,1.5-7.5,8.9-.4.5.2.6c1.6,6.3,4.9,15.2,9.1,25,1.1.5,2.2,1,3.3,1.4-4.5-10.4-8.2-19.7-9.9-26.4h0Z"/>
  <path class="st4" d="M158.1,180.7v-.6c0,0-.3-.4-.3-.4l-7.5-8.9,8.6-1.5,1-.2v-1s.3-15.4.3-15.4c-.1,0-.2,0-.3,0-.3,0-.6-.1-.9-.2-.1,0-.2,0-.3,0-.3,0-.6-.1-.8-.2,0,0,0,0-.1,0l-.3,14.8-9.8,1.7-2.2.4,1.4,1.7,8.6,10.2c-1.1,7.6-3.2,15.1-5.9,22.4,1.1-.5,2.1-1,3.2-1.5,2.4-6.9,4.3-14,5.3-21.1h0Z"/>
  <path class="st3" d="M23.2,172.5c-1.8-4.9-3.7-9.2-5.7-12.7h0c-.1,0-.2.1-.4.2-.3.1-.5.2-.8.4,0,0-.2,0-.2.1-.3.1-.6.3-.9.4,0,0,0,0,0,0h0c.3.6.7,1.3,1,1.9,2.1,3.4,4.4,6.6,6.9,9.7h0Z"/>
  <path class="st2" d="M102.7,127.7c13,.3,22-6.2,27.5-16.3,1.9-3.5,3.3-7.4,4.4-11.7,0-2.2.7-5.8,1-10.5.2-3.6.7-6.9,1.5-9.5,0,0,0,0,0,0-.1.1-.2.3-.3.4-.6-9.2-3.7-25.1-5-29.1-3-2.4-6.6-7.5-37.7-6.5-3.6-1-13.5,6.5-13.6,6.7-1.1,1.7-2.6,5.2-3.5,10.4-3,17.1-1.5,12.3-2.5,18.6-.2-.1-.6-.6-1.1-1.2,0,.4,0,.8.1,1.2.6,2.5,1,5.5,1.2,8.8.1,2.6.4,4.8.6,6.7,1.1,5,2.8,9.9,5.1,14.3,5.2,10.1,13.3,17.7,22.4,17.9h0Z"/>
  <path class="st3" d="M72.9,78.5c.1.1.2.2.3.4.6.6,1,1.1,1.1,1.2,1-6.3-.5-1.5,2.5-18.6.9-5.2,2.4-8.6,3.5-10.4,2.1-3.3,50.5,5.9,50.6,6,1.3,3.9,3.9,15.1,5.7,22.9.1-.1.2-.3.3-.4,0,0,0,0,0,0,1-3.4,2.5-5.5,4.6-5.4.2,0,.4,0,.6.1.7-6.9.4-14.4,0-22,.2-22-24.4-30.7-42.1-29.6-31,1.9-36.8,23.2-32.1,51.5,2.8,0,4,2,4.8,4.2h0Z"/>
  <path class="st8" d="M133.3,53.9s0,0,0,.1c0,0,0,0,0-.1h0Z"/>
  <path class="st8" d="M130.6,56.9c.1,0,.2.1.3.2,0,0-.1,0-.3-.2h0Z"/>
  <path class="st8" d="M75.7,68.3s0,0-.1,0c0,0,0,0,.1,0h0Z"/>
  <path class="st2" d="M73.5,80c-.1-.6-.3-1.1-.5-1.6-1-3-2.4-4.8-4.3-4.7-.5,0-.9.2-1.3.5-2.7,1.8-3.7,8.3-1.5,14.5,2.4,7.1,3.9,13.6,7.5,13.4,2.5-.1,2.4-2.4,1.9-6.6-.2-1.8-.5-4.1-.6-6.7-.2-3.3-.6-6.3-1.2-8.8h0ZM70.7,88.9c.5,2.2,1.6,2.6,1.5,4.4-.3,7.2-2.1,1.3-3.3-.9-1.4-2.7-1.8-8.1-1.5-10.1.3-2,1.1-6,2.7-6,1.6,0,3.9,5.5,1.7,8.1-.6.7-1.7,2.2-1.1,4.4h0Z"/>
  <path class="st6" d="M70.1,76.4c-1.6,0-2.4,3.9-2.7,6-.3,2,0,7.4,1.5,10.1,1.1,2.2,3,8,3.3.9,0-1.8-1-2.2-1.5-4.4-.5-2.2.6-3.8,1.1-4.4,2.2-2.5-.1-8-1.7-8.1h0Z"/>
  <path class="st2" d="M137,79.6s0,0,0,0c-.8,2.6-1.3,5.9-1.5,9.5-.3,4.8-1.1,8.3-1,10.5,0,1.7.6,2.7,2.1,2.8,3.6.2,5.1-6.2,7.7-13.3,2.4-6.7,1.1-13.9-2.1-14.9-.2,0-.4-.1-.6-.1-2-.1-3.5,2-4.6,5.4h0ZM141.3,92.9c-1.2,2.2-3.1,8-3.3.8,0-1.8,1-2.2,1.5-4.4.6-2.2-.5-3.8-1.1-4.4-2.2-2.6.2-8,1.8-8.1,1.6,0,2.4,3.9,2.7,6,.3,2-.2,7.4-1.6,10.1h0Z"/>
  <path class="st6" d="M140.3,76.8c-1.6,0-3.9,5.5-1.8,8.1.6.7,1.7,2.2,1.1,4.4-.6,2.2-1.6,2.5-1.5,4.4.2,7.2,2.1,1.3,3.3-.8,1.4-2.7,1.8-8,1.6-10.1-.3-2-1-6.1-2.7-6h0Z"/>
  <path class="st6" d="M125.4,137c-24.1,4.2-40.7-12.9-45-27,5.2,10,13.2,17.5,22.3,17.7,13,.3,22-6.2,27.5-16.3-.4,4.4-.5,8.5-.5,12.6,0,1.4,0,2.7,0,4.1-1.2,3.2-2.6,6.2-4.4,9h0Z"/>
  <path class="st3" d="M73.7,74.1c1.4-.4,1.9-.5,3.5-1,8.7-2.6,19.7-1.5,24.6,1.3.9.5,2.2.7,3.5.7,1.3,0,2.7-.2,3.5-.7,5-2.8,15.9-3.9,24.6-1.3,1.1.3,2.2.6,3.2.9.4,1.1.6,3-.3,5.6h-2.8c0,0-.7,2.4-3.4,5.9-2.7,3.5-13.9,3.2-17.3,2.4-3.5-.8-6.5-8.7-6.5-8.7-.8,0-1.3,0-2.2,0,0,0-3.1,7.9-6.5,8.7-3.5.8-14.7,1.2-17.3-2.4-2.7-3.5-3.4-5.8-3.4-5.8-1.1-1.7-1.8-2.1-3.7-1.9-.2-3.3,0-1.1.3-3.7h0ZM109.1,76.7c.2-2.7,22.7-6.7,22.8-.4,0,4-.5,8-3.7,9.8-1.9,1.1-5.1,1.4-9.7,1.5-12.3.3-9.4-10.9-9.4-10.9h0ZM101.8,76.7c-.5-3.1-22.7-6.5-22.8-.4,0,4,.5,8,3.7,9.8,1.9,1.1,5.1,1.4,9.7,1.5,12.3.3,9.5-10.9,9.4-10.9h0Z"/>
</svg>