<?xml version="1.0" encoding="UTF-8"?>
<svg id="Layer_1" xmlns="http://www.w3.org/2000/svg" version="1.1" viewBox="0 0 212.5 212.3">
  <!-- Generator: Adobe Illustrator 29.5.0, SVG Export Plug-In . SVG Version: 2.1.0 Build 137)  -->
  <defs>
    <style>
      .st0 {
        fill: #f5f0e4;
      }

      .st1 {
        fill: #333533;
      }

      .st1, .st2, .st3, .st4, .st5, .st6 {
        fill-rule: evenodd;
      }

      .st2 {
        fill: #807f7f;
      }

      .st3 {
        fill: #fcd1be;
      }

      .st4 {
        fill: #404040;
      }

      .st5 {
        fill: #bea0c4;
      }

      .st6 {
        fill: #fce5d9;
      }
    </style>
  </defs>
  <path class="st5" d="M106.2,0c58.7,0,106.2,47.6,106.2,106.2s-47.6,106.2-106.2,106.2S0,164.8,0,106.1,47.6,0,106.2,0h0Z"/>
  <polygon class="st0" points="134.6 125.7 134.6 125.7 134.6 125.7 134.6 125.7"/>
  <path class="st1" d="M162.2,154.1h.3-.3Z"/>
  <path class="st1" d="M55.8,151.4c0,0,.2,0,.4-.1,0,0-.2,0-.4.1h0Z"/>
  <path class="st6" d="M149.7,147.8c-4.8-2.2-14.8-5.3-15.9-12.8-.6-4.2-.6-8.4-.6-9.3,0-4.1,0-8.2.5-12.6-5.4,10.1-14.4,16.6-27.5,16.3-9.1-.2-17.2-7.8-22.4-17.9.7,5.3,1.1,10.4,1.2,15.4,0,.2,0,1.9,0,3.6-.3,7.4-8.5,12.8-15.8,15.3,18.7,32.5,60.4,33.2,80.6,1.9h0Z"/>
  <path class="st6" d="M106.3,129.6c13,.3,22-6.2,27.5-16.3,1.9-3.5,3.3-7.4,4.4-11.7,0-2.2.7-5.8,1-10.5.2-3.6.7-6.9,1.5-9.5h0c-.1,0-.2.3-.3.4-.6-9.2-3.7-25.1-5-29.1-3-2.4-6.6-7.5-37.7-6.5-3.6-1-13.5,6.5-13.6,6.7-1.1,1.7-2.6,5.2-3.5,10.4-3,17.1-1.5,12.3-2.5,18.6-.2,0-.6-.6-1.1-1.2,0,.4,0,.8,0,1.2.6,2.5,1,5.5,1.2,8.8,0,2.6.4,4.8.6,6.7,1.1,5,2.8,9.9,5.1,14.3,5.2,10.1,13.3,17.7,22.4,17.9h0v-.2Z"/>
  <path class="st4" d="M76.5,80.4c0,0,.2.2.3.4.6.6,1,1.1,1.1,1.2,1-6.3-.5-1.5,2.5-18.6.9-5.2,3.6-8.3,3.5-10.4,0-4.9,49-3.7,49.2-3.6,1.3,3.9,5.3,24.6,7.1,32.5.1,0,.2-.3.3-.4h0c1-3.4,2.5-5.5,4.6-5.4.2,0,.4,0,.6,0,.7-6.9.4-14.4,0-22,.2-22-24.4-30.7-42.1-29.6-31,1.9-36.8,23.2-32.1,51.5,2.8,0,4,2,4.8,4.2h.2Z"/>
  <path class="st2" d="M136.9,55.8h0q0,0,0,0h0Z"/>
  <path class="st2" d="M134.2,58.8c.1,0,.2,0,.3.2,0,0-.1,0-.3-.2h0Z"/>
  <path class="st2" d="M79.3,70.2h0,0Z"/>
  <path class="st6" d="M77.1,81.9c0-.6-.3-1.1-.5-1.6-1-3-2.4-4.8-4.3-4.7-.5,0-.9.2-1.3.5-2.7,1.8-3.7,8.3-1.5,14.5,2.4,7.1,3.9,13.6,7.5,13.4,2.5,0,2.4-2.4,1.9-6.6-.2-1.8-.5-4.1-.6-6.7-.2-3.3-.6-6.3-1.2-8.8h0ZM74.3,90.8c.5,2.2,1.6,2.6,1.5,4.4-.3,7.2-2.1,1.3-3.3-.9-1.4-2.7-1.8-8.1-1.5-10.1s1.1-6,2.7-6,3.9,5.5,1.7,8.1c-.6.7-1.7,2.2-1.1,4.4h0Z"/>
  <path class="st3" d="M73.7,78.3c-1.6,0-2.4,3.9-2.7,6-.3,2,0,7.4,1.5,10.1,1.1,2.2,3,8,3.3.9,0-1.8-1-2.2-1.5-4.4-.5-2.2.6-3.8,1.1-4.4,2.2-2.5,0-8-1.7-8.1h0Z"/>
  <path class="st6" d="M140.6,81.5h0c-.8,2.6-1.3,5.9-1.5,9.5-.3,4.8-1.1,8.3-1,10.5,0,1.7.6,2.7,2.1,2.8,3.6.2,5.1-6.2,7.7-13.3,2.4-6.7,1.1-13.9-2.1-14.9-.2,0-.4,0-.6,0-2,0-3.5,2-4.6,5.4h0ZM144.9,94.8c-1.2,2.2-3.1,8-3.3.8,0-1.8,1-2.2,1.5-4.4.6-2.2-.5-3.8-1.1-4.4-2.2-2.6.2-8,1.8-8.1,1.6,0,2.4,3.9,2.7,6,.3,2-.2,7.4-1.6,10.1h0Z"/>
  <path class="st3" d="M143.9,78.7c-1.6,0-3.9,5.5-1.8,8.1.6.7,1.7,2.2,1.1,4.4-.6,2.2-1.6,2.5-1.5,4.4.2,7.2,2.1,1.3,3.3-.8,1.4-2.7,1.8-8,1.6-10.1-.3-2-1-6.1-2.7-6h0Z"/>
  <path class="st4" d="M193.6,166.6c-.8-.7-1.6-1.3-2.6-1.9-14.1-9.5-41.8-16.4-52.1-22.5-11.1,34-58,26.7-63.8-.5-12.2,4.5-44.7,12.1-57,23.3,0,0-.1.1-.2.2,19.1,28.5,51.5,47.2,88.3,47.2s68.2-18.1,87.3-45.7h.1Z"/>
  <path class="st4" d="M82.1,75.7c9.9-4.1,12.4-6.1,20.7-23.3-.5,3.2-5.2,17.2-10.4,20.6,7.7-1.2,19.2-14.7,20.9-21.8,0,1.4-5.9,17.8-9.1,21.4,9.1-1.4,20.1-11.9,21.1-19.8,7.5,15.7,7.3,15,14.9,23.4,1.8-25.4-5.7-43.1-32.2-43.1-26.7,4.6-26.5,13.6-26,42.8h0v-.2Z"/>
  <path class="st4" d="M76.7,75.6c1.4-.4,1.9-.5,3.5-1,8.7-2.6,19.7-1.5,24.6,1.3.9.5,2.2.7,3.5.7s2.7-.2,3.5-.7c5-2.8,15.9-3.9,24.6-1.3,1.1.3,2.2.6,3.2.9.4,1.1.6,3-.3,5.6h-2.8s-.7,2.4-3.4,5.9-13.9,3.2-17.3,2.4c-3.5-.8-6.5-8.7-6.5-8.7h-2.2s-3.1,7.9-6.5,8.7c-3.5.8-14.7,1.2-17.3-2.4-2.7-3.5-3.4-5.8-3.4-5.8-1.1-1.7-1.8-2.1-3.7-1.9-.2-3.3,0-1.1.3-3.7h.2ZM112,78.2c.2-2.7,22.7-6.7,22.8-.4,0,4-.5,8-3.7,9.8-1.9,1.1-5.1,1.4-9.7,1.5-12.3.3-9.4-10.9-9.4-10.9h0ZM104.8,78.2c-.5-3.1-22.7-6.5-22.8-.4,0,4,.5,8,3.7,9.8,1.9,1.1,5.1,1.4,9.7,1.5,12.3.3,9.5-10.9,9.4-10.9h0Z"/>
  <path class="st3" d="M128.9,138.7c-24.1,4.2-40.7-12.9-45-27,5.2,10,13.2,17.5,22.3,17.7,13,.3,22-6.2,27.5-16.3-.4,4.4-.5,8.5-.5,12.6s0,7.2.9,10.1q-1.3,1.6-5.3,3h.1Z"/>
</svg>