<?xml version="1.0" encoding="UTF-8"?>
<svg id="Layer_1" xmlns="http://www.w3.org/2000/svg" version="1.1" viewBox="0 0 212.5 212.3">
  <!-- Generator: Adobe Illustrator 29.5.0, SVG Export Plug-In . SVG Version: 2.1.0 Build 137)  -->
  <defs>
    <style>
      .st0 {
        fill: #bea0c4;
      }

      .st0, .st1, .st2, .st3 {
        fill-rule: evenodd;
      }

      .st1 {
        fill: #fce5d9;
      }

      .st2 {
        fill: #404040;
      }

      .st4 {
        fill: #fff;
      }

      .st3 {
        fill: #fcd1be;
      }
    </style>
  </defs>
  <path class="st0" d="M106.2,0c58.7,0,106.2,47.6,106.2,106.2s-47.6,106.2-106.2,106.2S0,164.8,0,106.1,47.6,0,106.2,0h0Z"/>
  <path class="st2" d="M102.1,32.1c24.6-3.2,41.2,9.7,40.3,40-1.2,41.3-16.3,47.1-33.6,47.6-22.9.6-33.2-18.8-34.6-38.7-1.6-23.6,8.4-48.8,27.9-48.9h0Z"/>
  <path class="st1" d="M88.9,105.7s4,27.8-.7,35.6c-7.7,9.7-20.4,12.5-38.5,21.3,9,21.1,18.7,36.2,28.7,46.1,8.9,2.4,18.2,3.7,27.9,3.7s25.6-2.4,37.2-6.7c9.3-10.3,17.8-24.6,24.7-42-28.1-15.9-29.5-14.9-36.6-22.4-3.9-4.1-5.3-14.7-5.9-37.2l-36.9,1.6h0Z"/>
  <path class="st3" d="M89.3,109.3l36.8,5.2c.8,15.5,2.3,23.4,5.5,26.8,0,0,.2.2.3.3-25.4,8-37.8-8.9-41.7-22.8-.2-3.7-.6-7.1-.9-9.4h0Z"/>
  <path class="st1" d="M77.7,78.7c-2.8,0-4.4,6.3-2.9,12.3,1.6,6,2.4,11.5,5.2,11.5,2.8,0,1.6-3.9,1.6-11,0-7.1-1.1-12.8-3.9-12.8h0Z"/>
  <path class="st3" d="M78.6,81c-1.2-.1-2.1,3.1-2.4,4.8-.3,1.7-.3,6.2.7,8.5.8,1.9,1.9,6.8,2.5.9.1-1.5-.6-1.8-1-3.7-.3-1.9.6-3.1,1.1-3.6,1.8-2,.2-6.7-.9-6.8h0Z"/>
  <path class="st1" d="M140.5,78.8c2.8,0,4.4,6.3,2.8,12.3-1.6,6-2.5,11.5-5.3,11.5-2.8,0-1.5-3.9-1.5-11,0-7.1,1.2-12.8,4-12.8h0Z"/>
  <path class="st3" d="M139.6,81c1.2-.1,2,3.2,2.3,4.8.3,1.7.2,6.2-.7,8.5-.8,1.9-2,6.8-2.5.9-.1-1.5.7-1.8,1-3.7.3-1.9-.6-3.1-1.1-3.6-1.8-2-.2-6.7,1-6.8h0Z"/>
  <path class="st1" d="M109,42.2c31.7,0,29,18.9,28.9,44.7,0,25.8-17.7,43-29.4,41.9-10.6-.4-28.3-15.4-28.2-41.2,0-19.7,2-37.1,15.7-43.6,4.2-2,5.6-1.9,13.1-1.9h0Z"/>
  <path class="st2" d="M102.2,43.5c34.3-.3,37.2-32.3,5.3-32.2-16.1,0-36.8,20.4-5.3,32.2h0Z"/>
  <path class="st2" d="M185.8,176.5c-2.8-6.3-9.8-12.4-16.4-15-10.3-5-17.7-6.7-27.1-12.2-11.4,47.1-62.7,33.2-64.8.2-13.5,5-15.5,6.5-29.5,11.9,0,0-14,4.5-18.4,18.3,19.3,20.1,46.5,32.7,76.7,32.7s60.1-13.9,79.6-35.8h0Z"/>
  <path class="st2" d="M81.7,84.7c3.9-15.5,29.6-14.8,40.6-32.4,15,15.3,12.1,17.3,14,32.6,3.1-4.9,3.6-14.2,3.4-17.8-.5-17-15.2-32.9-31-30.9-22.5,4.5-26.4,12.5-33.5,39.6,4.3,2.7,4.7,4,6.5,8.8h0Z"/>
  <circle class="st4" cx="79.8" cy="104.1" r="2.5"/>
  <circle class="st4" cx="138.3" cy="104.1" r="2.5"/>
</svg>