<?xml version="1.0" encoding="UTF-8"?>
<svg id="Layer_1" xmlns="http://www.w3.org/2000/svg" version="1.1" viewBox="0 0 212.5 212.3">
  <!-- Generator: Adobe Illustrator 29.5.0, SVG Export Plug-In . SVG Version: 2.1.0 Build 137)  -->
  <defs>
    <style>
      .st0 {
        fill: #333533;
      }

      .st0, .st1, .st2, .st3, .st4, .st5 {
        fill-rule: evenodd;
      }

      .st1 {
        fill: #807f7f;
      }

      .st2 {
        fill: #fcd1be;
      }

      .st3 {
        fill: #404040;
      }

      .st4 {
        fill: #bea0c4;
      }

      .st5 {
        fill: #fce5d9;
      }
    </style>
  </defs>
  <path class="st4" d="M106.2,0c58.7,0,106.2,47.6,106.2,106.2s-47.6,106.2-106.2,106.2S0,164.8,0,106.1,47.6,0,106.2,0h0Z"/>
  <path class="st0" d="M161.3,151.3h.3-.3Z"/>
  <path class="st0" d="M54.9,148.6c0,0,.2,0,.4-.1,0,0-.2,0-.4.1h0Z"/>
  <path class="st5" d="M148.8,145c-4.8-2.2-14.8-5.3-15.9-12.8-.6-4.2-.6-8.4-.6-9.3,0-4.1,0-8.2.5-12.6-5.4,10.1-14.4,16.6-27.5,16.3-9.1-.2-17.2-7.8-22.4-17.9.7,5.3,1.1,10.4,1.2,15.4,0,.2,0,1.9,0,3.6-.3,7.4-8.5,12.8-15.8,15.3,18.7,32.5,60.4,33.2,80.6,1.9h0Z"/>
  <path class="st5" d="M105.3,126.8c13,.3,22-6.2,27.5-16.3,1.9-3.5,3.3-7.4,4.4-11.7,0-2.2.7-5.8,1-10.5.2-3.6.7-6.9,1.5-9.5h0c-.1,0-.2.3-.3.4-.6-9.2-3.7-25.1-5-29.1-3-2.4-6.6-7.5-37.7-6.5-3.6-1-13.5,6.5-13.6,6.7-1.1,1.7-2.6,5.2-3.5,10.4-3,17.1-1.5,12.3-2.5,18.6-.2,0-.6-.6-1.1-1.2,0,.4,0,.8,0,1.2.6,2.5,1,5.5,1.2,8.8,0,2.6.4,4.8.6,6.7,1.1,5,2.8,9.9,5.1,14.3,5.2,10.1,13.3,17.7,22.4,17.9h0v-.2Z"/>
  <path class="st3" d="M77,79.1c1-6.3-.5-1.5,2.5-18.6.9-5.2,3.2-8.2,4.3-10,2.1-3.3,48.6.5,48.8.6,5.3,5.9,5,20.1,6.8,27.9.1,0,.2-.3.3-.4h0c1-3.4,2.5-5.5,4.6-5.4.2,0,.4,0,.6,0,2.7-29-12.5-47.5-41.5-53.9,2.2,2.6,2.1,3.8,1.9,7.3-8.9-5.5-12.8-6.2-17.9-5.9,5.3,6.3,6.2,8.9,4.8,9.8-4.1-2.1-4.8-3.8-8.3-8.3,5.2,7.8-13.8,31.4-12.2,50.3,4,0,2.8,4.4,5.5,6.2h0l-.2.3Z"/>
  <path class="st1" d="M136,52.9h0q0,0,0,0h0Z"/>
  <path class="st1" d="M133.3,56c.1,0,.2,0,.3.2,0,0-.1,0-.3-.2h0Z"/>
  <path class="st1" d="M78.4,67.4h0,0Z"/>
  <path class="st5" d="M76.2,79.1c0-.6-.3-1.1-.5-1.6-1-3-2.4-4.8-4.3-4.7-.5,0-.9.2-1.3.5-2.7,1.8-3.7,8.3-1.5,14.5,2.4,7.1,3.9,13.6,7.5,13.4,2.5,0,2.4-2.4,1.9-6.6-.2-1.8-.5-4.1-.6-6.7-.2-3.3-.6-6.3-1.2-8.8h0ZM73.3,88c.5,2.2,1.6,2.6,1.5,4.4-.3,7.2-2.1,1.3-3.3-.9-1.4-2.7-1.8-8.1-1.5-10.1s1.1-6,2.7-6,3.9,5.5,1.7,8.1c-.6.7-1.7,2.2-1.1,4.4h0Z"/>
  <path class="st2" d="M72.8,75.5c-1.6,0-2.4,3.9-2.7,6-.3,2,0,7.4,1.5,10.1,1.1,2.2,3,8,3.3.9,0-1.8-1-2.2-1.5-4.4-.5-2.2.6-3.8,1.1-4.4,2.2-2.5,0-8-1.7-8.1h0Z"/>
  <path class="st5" d="M139.7,78.7h0c-.8,2.6-1.3,5.9-1.5,9.5-.3,4.8-1.1,8.3-1,10.5,0,1.7.6,2.7,2.1,2.8,3.6.2,5.1-6.2,7.7-13.3,2.4-6.7,1.1-13.9-2.1-14.9-.2,0-.4,0-.6,0-2,0-3.5,2-4.6,5.4h0ZM144,92c-1.2,2.2-3.1,8-3.3.8,0-1.8,1-2.2,1.5-4.4.6-2.2-.5-3.8-1.1-4.4-2.2-2.6.2-8,1.8-8.1,1.6,0,2.4,3.9,2.7,6,.3,2-.2,7.4-1.6,10.1h0Z"/>
  <path class="st2" d="M143,75.9c-1.6,0-3.9,5.5-1.8,8.1.6.7,1.7,2.2,1.1,4.4-.6,2.2-1.6,2.5-1.5,4.4.2,7.2,2.1,1.3,3.3-.8,1.4-2.7,1.8-8,1.6-10.1-.3-2-1-6.1-2.7-6h0Z"/>
  <path class="st3" d="M194.8,164.8c-1.1-1-2.3-2-3.7-2.9-14.1-9.5-41.8-16.4-52.1-22.5-11.1,34-58,26.7-63.8-.5-12.2,4.5-44.7,12.1-57,23.3-.4.4-.9.9-1.3,1.5,18.9,29.3,51.9,48.7,89.3,48.7s69.6-18.9,88.6-47.6h0Z"/>
  <path class="st2" d="M128,136.1c-24.1,4.2-40.7-12.9-45-27,5.2,10,13.2,17.5,22.3,17.7,13,.3,22-6.2,27.5-16.3-.4,4.4-.5,8.5-.5,12.6s0,7.2.9,10.1q-1.3,1.6-5.3,3h.1Z"/>
  <path class="st3" d="M107.8,122.9c-6.2,3.7-15.7-5.9-15.7-5.9l.7,4.1c2.3,9.6,14.9,10.5,14.9,10.5,0,0,12.6-.9,14.9-10.5l.7-4.1s-9.5,9.6-15.7,5.9h.2Z"/>
</svg>